<svg width="289" height="64" viewBox="0 0 289 64" fill="none" xmlns="http://www.w3.org/2000/svg">
<path fill-rule="evenodd" clip-rule="evenodd" d="M53.1666 56C59.81 50.1364 64 41.5575 64 32H0C0 34.7624 0.350024 37.443 1.00814 40H21.0557C27.6736 40 33.7236 43.7391 36.6833 49.6584C38.6266 53.5449 42.5989 56 46.9443 56H53.1666ZM0.561583 26H63.4384C62.9045 23.1855 62.002 20.5015 60.7831 18H3.21693C1.99796 20.5015 1.09548 23.1855 0.561583 26ZM32 0C42.1055 0 51.117 4.6843 56.9815 12H7.01852C12.883 4.6843 21.8945 0 32 0ZM43.867 61.7274C38.4959 60.7671 33.8098 57.3279 31.3167 52.3416C29.3734 48.4551 25.401 46 21.0557 46H3.21693C8.41011 56.6569 19.3475 64 32 64C36.1929 64 40.1975 63.1936 43.867 61.7274Z" fill="black"/>
<path d="M88.9822 23.3893H80V18H104.231V23.3893H95.2489V47.8293H88.9822V23.3893Z" fill="black"/>
<path d="M103.5 26.0213H109.182V29.0711C109.906 27.9292 110.784 27.0797 111.814 26.5227C112.845 25.9378 113.931 25.6453 115.073 25.6453C115.63 25.6453 116.089 25.6732 116.451 25.7289C116.814 25.7567 117.134 25.7985 117.412 25.8542L116.702 31.16C116.034 30.9929 115.212 30.9093 114.237 30.9093C113.597 30.9093 112.984 30.9929 112.399 31.16C111.814 31.2993 111.285 31.5778 110.811 31.9956C110.31 32.4412 109.934 32.9425 109.683 33.4996C109.461 34.0566 109.349 34.6276 109.349 35.2124V47.8293H103.5V26.0213Z" fill="black"/>
<path d="M132.689 45.072C131.826 46.0468 130.851 46.8406 129.765 47.4533C128.706 48.0661 127.328 48.3724 125.629 48.3724C124.654 48.3724 123.721 48.2471 122.83 47.9964C121.966 47.7458 121.2 47.3559 120.532 46.8267C119.891 46.2975 119.376 45.629 118.986 44.8213C118.596 43.9858 118.401 42.997 118.401 41.8551C118.401 40.3511 118.736 39.1256 119.404 38.1787C120.072 37.2317 120.95 36.4936 122.036 35.9644C123.122 35.4353 124.334 35.0593 125.671 34.8364C127.035 34.6136 128.414 34.4744 129.807 34.4187L132.606 34.2933V33.2071C132.606 31.8702 132.23 30.9511 131.478 30.4498C130.754 29.9484 129.89 29.6978 128.888 29.6978C126.576 29.6978 125.253 30.5751 124.919 32.3298L119.571 31.8284C119.961 29.5446 120.964 27.9013 122.579 26.8987C124.194 25.8681 126.367 25.3529 129.096 25.3529C130.768 25.3529 132.188 25.5618 133.358 25.9796C134.528 26.3695 135.461 26.9404 136.157 27.6924C136.881 28.4444 137.396 29.3636 137.703 30.4498C138.037 31.5081 138.204 32.7058 138.204 34.0427V47.8293H132.689V45.072ZM132.564 38.0951L129.974 38.2204C128.748 38.2761 127.76 38.4015 127.008 38.5964C126.256 38.7914 125.671 39.0421 125.253 39.3484C124.863 39.627 124.598 39.9612 124.459 40.3511C124.32 40.741 124.25 41.1727 124.25 41.6462C124.25 42.3704 124.501 42.9413 125.002 43.3591C125.504 43.7769 126.2 43.9858 127.091 43.9858C128.595 43.9858 129.821 43.6376 130.768 42.9413C131.297 42.5514 131.728 42.064 132.063 41.4791C132.397 40.8664 132.564 40.1144 132.564 39.2231V38.0951Z" fill="black"/>
<path d="M143.157 26.0213H148.838V29.0293C149.702 27.7481 150.718 26.8151 151.888 26.2302C153.086 25.6453 154.325 25.3529 155.606 25.3529C158.085 25.3529 159.923 26.0074 161.121 27.3164C162.319 28.5976 162.917 30.6308 162.917 33.416V47.8293H157.069V34.2098C157.069 32.6779 156.776 31.6335 156.191 31.0764C155.606 30.5194 154.826 30.2409 153.852 30.2409C153.1 30.2409 152.445 30.3523 151.888 30.5751C151.359 30.7979 150.858 31.1182 150.384 31.536C149.994 31.9259 149.66 32.3994 149.381 32.9564C149.131 33.4856 149.005 34.0705 149.005 34.7111V47.8293H143.157V26.0213Z" fill="black"/>
<path d="M172.1 40.8942C172.295 42.1754 172.81 43.011 173.646 43.4009C174.481 43.7908 175.484 43.9858 176.654 43.9858C178.046 43.9858 179.035 43.8187 179.62 43.4844C180.233 43.1224 180.539 42.5514 180.539 41.7716C180.539 41.2145 180.344 40.7271 179.954 40.3093C179.592 39.8916 178.882 39.5991 177.824 39.432L174.816 38.9307C172.17 38.5129 170.192 37.8027 168.883 36.8C167.602 35.7695 166.961 34.2237 166.961 32.1627C166.961 31.1043 167.184 30.1573 167.63 29.3218C168.103 28.4862 168.758 27.776 169.593 27.1911C170.429 26.6062 171.418 26.1606 172.56 25.8542C173.729 25.52 175.011 25.3529 176.403 25.3529C178.13 25.3529 179.578 25.5339 180.748 25.896C181.918 26.2302 182.865 26.6898 183.589 27.2747C184.341 27.8596 184.898 28.5559 185.26 29.3636C185.65 30.1713 185.929 31.0347 186.096 31.9538L180.873 32.6222C180.623 31.6196 180.177 30.8815 179.537 30.408C178.924 29.9345 177.921 29.6978 176.529 29.6978C175.749 29.6978 175.094 29.7674 174.565 29.9067C174.064 30.0181 173.66 30.1713 173.353 30.3662C173.075 30.5612 172.866 30.784 172.727 31.0347C172.615 31.2853 172.56 31.5221 172.56 31.7449C172.56 32.4412 172.769 32.9564 173.186 33.2907C173.632 33.597 174.481 33.8616 175.735 34.0844L178.492 34.544C180.024 34.7947 181.291 35.115 182.294 35.5049C183.297 35.8948 184.09 36.3822 184.675 36.9671C185.288 37.5241 185.706 38.1926 185.929 38.9724C186.179 39.7523 186.305 40.6575 186.305 41.688C186.305 43.749 185.525 45.4062 183.965 46.6596C182.405 47.885 179.996 48.4978 176.737 48.4978C175.428 48.4978 174.175 48.3724 172.977 48.1218C171.808 47.899 170.749 47.4951 169.802 46.9102C168.883 46.3253 168.117 45.5455 167.505 44.5707C166.92 43.5959 166.585 42.3704 166.502 40.8942H172.1Z" fill="black"/>
<path d="M190.32 26.0213H196.002V28.904C197.673 26.5366 199.957 25.3529 202.853 25.3529C205.889 25.3529 208.159 26.3834 209.663 28.4444C211.167 30.5055 211.919 33.3324 211.919 36.9253C211.919 38.6521 211.696 40.2258 211.25 41.6462C210.833 43.0667 210.206 44.2922 209.37 45.3227C208.563 46.3253 207.574 47.1052 206.404 47.6622C205.234 48.2193 203.911 48.4978 202.435 48.4978C201.349 48.4978 200.263 48.3028 199.177 47.9129C198.118 47.523 197.116 46.7431 196.169 45.5733V55.9342H190.32V26.0213ZM196.127 37.0924C196.127 38.5129 196.238 39.6548 196.461 40.5182C196.712 41.3538 197.102 42.0361 197.631 42.5653C198.188 43.0667 198.745 43.4009 199.302 43.568C199.887 43.7073 200.472 43.7769 201.057 43.7769C201.697 43.7769 202.31 43.6516 202.895 43.4009C203.48 43.1502 203.981 42.7603 204.399 42.2311C204.845 41.6741 205.193 40.9639 205.443 40.1004C205.694 39.237 205.819 38.1926 205.819 36.9671C205.819 35.6859 205.694 34.6136 205.443 33.7502C205.221 32.8868 204.9 32.1905 204.482 31.6613C204.065 31.1043 203.563 30.7144 202.978 30.4916C202.421 30.2409 201.823 30.1156 201.182 30.1156C200.458 30.1156 199.831 30.213 199.302 30.408C198.773 30.603 198.258 30.9093 197.756 31.3271C197.199 31.8563 196.781 32.5247 196.503 33.3324C196.252 34.1402 196.127 35.1707 196.127 36.424V37.0924Z" fill="black"/>
<path d="M226.219 48.4978C222.709 48.4978 219.994 47.4951 218.072 45.4898C216.15 43.4844 215.189 40.6157 215.189 36.8836C215.189 35.101 215.44 33.4996 215.941 32.0791C216.47 30.6308 217.209 29.4193 218.156 28.4444C219.13 27.4418 220.3 26.6759 221.665 26.1467C223.03 25.6175 224.548 25.3529 226.219 25.3529C227.918 25.3529 229.449 25.6175 230.814 26.1467C232.179 26.6759 233.335 27.4418 234.282 28.4444C235.257 29.4193 235.995 30.6308 236.496 32.0791C236.997 33.4996 237.248 35.101 237.248 36.8836C237.248 38.6939 236.983 40.3233 236.454 41.7716C235.953 43.192 235.215 44.4036 234.24 45.4062C233.293 46.4089 232.137 47.1748 230.772 47.704C229.408 48.2332 227.89 48.4978 226.219 48.4978ZM226.219 43.8187C227.89 43.8187 229.129 43.2199 229.937 42.0222C230.772 40.8246 231.19 39.1117 231.19 36.8836C231.19 34.6554 230.772 32.9564 229.937 31.7867C229.129 30.6169 227.89 30.032 226.219 30.032C224.548 30.032 223.294 30.6169 222.459 31.7867C221.651 32.9564 221.247 34.6554 221.247 36.8836C221.247 39.1396 221.651 40.8664 222.459 42.064C223.266 43.2338 224.52 43.8187 226.219 43.8187Z" fill="black"/>
<path d="M245.905 40.8942C246.1 42.1754 246.615 43.011 247.451 43.4009C248.286 43.7908 249.289 43.9858 250.459 43.9858C251.851 43.9858 252.84 43.8187 253.425 43.4844C254.038 43.1224 254.344 42.5514 254.344 41.7716C254.344 41.2145 254.149 40.7271 253.759 40.3093C253.397 39.8916 252.687 39.5991 251.628 39.432L248.62 38.9307C245.974 38.5129 243.997 37.8027 242.688 36.8C241.407 35.7695 240.766 34.2237 240.766 32.1627C240.766 31.1043 240.989 30.1573 241.435 29.3218C241.908 28.4862 242.563 27.776 243.398 27.1911C244.234 26.6062 245.222 26.1606 246.364 25.8542C247.534 25.52 248.815 25.3529 250.208 25.3529C251.935 25.3529 253.383 25.5339 254.553 25.896C255.723 26.2302 256.67 26.6898 257.394 27.2747C258.146 27.8596 258.703 28.5559 259.065 29.3636C259.455 30.1713 259.733 31.0347 259.9 31.9538L254.678 32.6222C254.427 31.6196 253.982 30.8815 253.341 30.408C252.729 29.9345 251.726 29.6978 250.333 29.6978C249.553 29.6978 248.899 29.7674 248.37 29.9067C247.868 30.0181 247.464 30.1713 247.158 30.3662C246.88 30.5612 246.671 30.784 246.531 31.0347C246.42 31.2853 246.364 31.5221 246.364 31.7449C246.364 32.4412 246.573 32.9564 246.991 33.2907C247.437 33.597 248.286 33.8616 249.539 34.0844L252.297 34.544C253.829 34.7947 255.096 35.115 256.099 35.5049C257.101 35.8948 257.895 36.3822 258.48 36.9671C259.093 37.5241 259.51 38.1926 259.733 38.9724C259.984 39.7523 260.109 40.6575 260.109 41.688C260.109 43.749 259.329 45.4062 257.77 46.6596C256.21 47.885 253.801 48.4978 250.542 48.4978C249.233 48.4978 247.98 48.3724 246.782 48.1218C245.612 47.899 244.554 47.4951 243.607 46.9102C242.688 46.3253 241.922 45.5455 241.309 44.5707C240.724 43.5959 240.39 42.3704 240.307 40.8942H245.905Z" fill="black"/>
<path d="M264.166 26.0213H270.015V47.8293H264.166V26.0213ZM264.083 18H270.099V23.264H264.083V18Z" fill="black"/>
<path d="M276.559 30.5751H273.133V26.0213H276.559V20.2142H282.407V26.0213H287.421V30.5751H282.407V40.6436C282.407 41.7855 282.644 42.5653 283.118 42.9831C283.591 43.373 284.204 43.568 284.956 43.568C285.346 43.568 285.736 43.5541 286.126 43.5262C286.543 43.4705 286.947 43.387 287.337 43.2756L288.173 47.5787C287.365 47.8293 286.571 47.9964 285.791 48.08C285.039 48.1914 284.315 48.2471 283.619 48.2471C281.224 48.2471 279.441 47.6761 278.271 46.5342C277.13 45.3923 276.559 43.4705 276.559 40.7689V30.5751Z" fill="black"/>
</svg>
